<svg xmlns="http://www.w3.org/2000/svg" xmlns:xlink="http://www.w3.org/1999/xlink" width="500" zoomAndPan="magnify" viewBox="0 0 375 374.999991" height="500" preserveAspectRatio="xMidYMid meet" version="1.0"><defs><filter x="0%" y="0%" width="100%" height="100%" id="8e1eb89912"><feColorMatrix values="0 0 0 0 1 0 0 0 0 1 0 0 0 0 1 0 0 0 1 0" color-interpolation-filters="sRGB"/></filter><g/><clipPath id="5ec41253c3"><path d="M 37.5 139.769531 L 84 139.769531 L 84 231 L 37.5 231 Z M 37.5 139.769531 " clip-rule="nonzero"/></clipPath><clipPath id="ba615450ab"><path d="M 85 204 L 127 204 L 127 235.019531 L 85 235.019531 Z M 85 204 " clip-rule="nonzero"/></clipPath><clipPath id="54a6f33cf1"><path d="M 123.527344 103.5 L 375 103.5 L 375 271.5 L 123.527344 271.5 Z M 123.527344 103.5 " clip-rule="nonzero"/></clipPath><clipPath id="b52294f37d"><path d="M 0.527344 0.5 L 252 0.5 L 252 168.5 L 0.527344 168.5 Z M 0.527344 0.5 " clip-rule="nonzero"/></clipPath><clipPath id="ad872594dd"><path d="M 0.527344 0.5 L 252 0.5 L 252 168.5 L 0.527344 168.5 Z M 0.527344 0.5 " clip-rule="nonzero"/></clipPath><linearGradient x1="-74.667" gradientTransform="matrix(0.748275, 0, 0, 0.752287, 56.400461, 56.66453)" y1="36.5" x2="261.400589" gradientUnits="userSpaceOnUse" y2="36.5" id="db78c2bd20"><stop stop-opacity="1" stop-color="rgb(36.079407%, 88.238525%, 90.19928%)" offset="0"/><stop stop-opacity="1" stop-color="rgb(36.079407%, 88.238525%, 90.19928%)" offset="0.125"/><stop stop-opacity="1" stop-color="rgb(36.079407%, 88.238525%, 90.19928%)" offset="0.1875"/><stop stop-opacity="1" stop-color="rgb(36.079407%, 88.238525%, 90.19928%)" offset="0.21875"/><stop stop-opacity="1" stop-color="rgb(35.954285%, 88.00354%, 89.99176%)" offset="0.222656"/><stop stop-opacity="1" stop-color="rgb(35.829163%, 87.768555%, 89.784241%)" offset="0.226563"/><stop stop-opacity="1" stop-color="rgb(35.606384%, 87.347412%, 89.413452%)" offset="0.230469"/><stop stop-opacity="1" stop-color="rgb(35.385132%, 86.927795%, 89.042664%)" offset="0.234375"/><stop stop-opacity="1" stop-color="rgb(35.162354%, 86.508179%, 88.671875%)" offset="0.238281"/><stop stop-opacity="1" stop-color="rgb(34.941101%, 86.088562%, 88.301086%)" offset="0.242188"/><stop stop-opacity="1" stop-color="rgb(34.718323%, 85.668945%, 87.930298%)" offset="0.246094"/><stop stop-opacity="1" stop-color="rgb(34.495544%, 85.249329%, 87.561035%)" offset="0.25"/><stop stop-opacity="1" stop-color="rgb(34.272766%, 84.829712%, 87.190247%)" offset="0.253906"/><stop stop-opacity="1" stop-color="rgb(34.051514%, 84.410095%, 86.819458%)" offset="0.257813"/><stop stop-opacity="1" stop-color="rgb(33.828735%, 83.988953%, 86.448669%)" offset="0.261719"/><stop stop-opacity="1" stop-color="rgb(33.607483%, 83.569336%, 86.079407%)" offset="0.265625"/><stop stop-opacity="1" stop-color="rgb(33.384705%, 83.149719%, 85.708618%)" offset="0.269531"/><stop stop-opacity="1" stop-color="rgb(33.161926%, 82.730103%, 85.33783%)" offset="0.273438"/><stop stop-opacity="1" stop-color="rgb(32.939148%, 82.310486%, 84.967041%)" offset="0.277344"/><stop stop-opacity="1" stop-color="rgb(32.717896%, 81.890869%, 84.597778%)" offset="0.28125"/><stop stop-opacity="1" stop-color="rgb(32.495117%, 81.471252%, 84.22699%)" offset="0.285156"/><stop stop-opacity="1" stop-color="rgb(32.273865%, 81.051636%, 83.856201%)" offset="0.289062"/><stop stop-opacity="1" stop-color="rgb(32.051086%, 80.632019%, 83.485413%)" offset="0.292969"/><stop stop-opacity="1" stop-color="rgb(31.828308%, 80.212402%, 83.11615%)" offset="0.296875"/><stop stop-opacity="1" stop-color="rgb(31.60553%, 79.79126%, 82.745361%)" offset="0.300781"/><stop stop-opacity="1" stop-color="rgb(31.384277%, 79.371643%, 82.374573%)" offset="0.304688"/><stop stop-opacity="1" stop-color="rgb(31.161499%, 78.952026%, 82.003784%)" offset="0.308594"/><stop stop-opacity="1" stop-color="rgb(30.940247%, 78.53241%, 81.634521%)" offset="0.3125"/><stop stop-opacity="1" stop-color="rgb(30.717468%, 78.112793%, 81.263733%)" offset="0.316406"/><stop stop-opacity="1" stop-color="rgb(30.49469%, 77.693176%, 80.892944%)" offset="0.320312"/><stop stop-opacity="1" stop-color="rgb(30.271912%, 77.27356%, 80.522156%)" offset="0.324219"/><stop stop-opacity="1" stop-color="rgb(30.050659%, 76.853943%, 80.152893%)" offset="0.328125"/><stop stop-opacity="1" stop-color="rgb(29.827881%, 76.4328%, 79.782104%)" offset="0.332031"/><stop stop-opacity="1" stop-color="rgb(29.606628%, 76.013184%, 79.411316%)" offset="0.335938"/><stop stop-opacity="1" stop-color="rgb(29.38385%, 75.593567%, 79.040527%)" offset="0.339844"/><stop stop-opacity="1" stop-color="rgb(29.161072%, 75.17395%, 78.669739%)" offset="0.34375"/><stop stop-opacity="1" stop-color="rgb(28.938293%, 74.754333%, 78.29895%)" offset="0.347656"/><stop stop-opacity="1" stop-color="rgb(28.717041%, 74.334717%, 77.929688%)" offset="0.351562"/><stop stop-opacity="1" stop-color="rgb(28.494263%, 73.9151%, 77.558899%)" offset="0.355469"/><stop stop-opacity="1" stop-color="rgb(28.27301%, 73.495483%, 77.18811%)" offset="0.359375"/><stop stop-opacity="1" stop-color="rgb(28.050232%, 73.074341%, 76.817322%)" offset="0.363281"/><stop stop-opacity="1" stop-color="rgb(27.827454%, 72.654724%, 76.448059%)" offset="0.367188"/><stop stop-opacity="1" stop-color="rgb(27.604675%, 72.235107%, 76.077271%)" offset="0.371094"/><stop stop-opacity="1" stop-color="rgb(27.383423%, 71.815491%, 75.706482%)" offset="0.375"/><stop stop-opacity="1" stop-color="rgb(27.160645%, 71.395874%, 75.335693%)" offset="0.378906"/><stop stop-opacity="1" stop-color="rgb(26.939392%, 70.976257%, 74.966431%)" offset="0.382813"/><stop stop-opacity="1" stop-color="rgb(26.716614%, 70.556641%, 74.595642%)" offset="0.386719"/><stop stop-opacity="1" stop-color="rgb(26.493835%, 70.137024%, 74.224854%)" offset="0.390625"/><stop stop-opacity="1" stop-color="rgb(26.271057%, 69.715881%, 73.854065%)" offset="0.394531"/><stop stop-opacity="1" stop-color="rgb(26.049805%, 69.296265%, 73.484802%)" offset="0.398438"/><stop stop-opacity="1" stop-color="rgb(25.827026%, 68.876648%, 73.114014%)" offset="0.402344"/><stop stop-opacity="1" stop-color="rgb(25.605774%, 68.457031%, 72.743225%)" offset="0.40625"/><stop stop-opacity="1" stop-color="rgb(25.382996%, 68.037415%, 72.372437%)" offset="0.410156"/><stop stop-opacity="1" stop-color="rgb(25.160217%, 67.617798%, 72.003174%)" offset="0.414063"/><stop stop-opacity="1" stop-color="rgb(24.937439%, 67.198181%, 71.632385%)" offset="0.417969"/><stop stop-opacity="1" stop-color="rgb(24.716187%, 66.778564%, 71.261597%)" offset="0.421875"/><stop stop-opacity="1" stop-color="rgb(24.493408%, 66.357422%, 70.890808%)" offset="0.425781"/><stop stop-opacity="1" stop-color="rgb(24.272156%, 65.937805%, 70.521545%)" offset="0.429688"/><stop stop-opacity="1" stop-color="rgb(24.049377%, 65.518188%, 70.150757%)" offset="0.433594"/><stop stop-opacity="1" stop-color="rgb(23.826599%, 65.098572%, 69.779968%)" offset="0.4375"/><stop stop-opacity="1" stop-color="rgb(23.603821%, 64.678955%, 69.40918%)" offset="0.441406"/><stop stop-opacity="1" stop-color="rgb(23.382568%, 64.259338%, 69.038391%)" offset="0.445312"/><stop stop-opacity="1" stop-color="rgb(23.15979%, 63.839722%, 68.667603%)" offset="0.449219"/><stop stop-opacity="1" stop-color="rgb(22.938538%, 63.420105%, 68.29834%)" offset="0.453125"/><stop stop-opacity="1" stop-color="rgb(22.715759%, 62.998962%, 67.927551%)" offset="0.457031"/><stop stop-opacity="1" stop-color="rgb(22.492981%, 62.579346%, 67.556763%)" offset="0.460938"/><stop stop-opacity="1" stop-color="rgb(22.270203%, 62.159729%, 67.185974%)" offset="0.464844"/><stop stop-opacity="1" stop-color="rgb(22.04895%, 61.740112%, 66.816711%)" offset="0.46875"/><stop stop-opacity="1" stop-color="rgb(21.826172%, 61.320496%, 66.445923%)" offset="0.472656"/><stop stop-opacity="1" stop-color="rgb(21.604919%, 60.900879%, 66.075134%)" offset="0.476562"/><stop stop-opacity="1" stop-color="rgb(21.382141%, 60.481262%, 65.704346%)" offset="0.480469"/><stop stop-opacity="1" stop-color="rgb(21.159363%, 60.061646%, 65.335083%)" offset="0.484375"/><stop stop-opacity="1" stop-color="rgb(20.936584%, 59.640503%, 64.964294%)" offset="0.488281"/><stop stop-opacity="1" stop-color="rgb(20.715332%, 59.220886%, 64.593506%)" offset="0.492188"/><stop stop-opacity="1" stop-color="rgb(20.492554%, 58.80127%, 64.222717%)" offset="0.496094"/><stop stop-opacity="1" stop-color="rgb(20.271301%, 58.381653%, 63.853455%)" offset="0.5"/><stop stop-opacity="1" stop-color="rgb(20.048523%, 57.962036%, 63.482666%)" offset="0.503906"/><stop stop-opacity="1" stop-color="rgb(19.825745%, 57.542419%, 63.111877%)" offset="0.507812"/><stop stop-opacity="1" stop-color="rgb(19.602966%, 57.122803%, 62.741089%)" offset="0.511719"/><stop stop-opacity="1" stop-color="rgb(19.381714%, 56.703186%, 62.371826%)" offset="0.515625"/><stop stop-opacity="1" stop-color="rgb(19.158936%, 56.282043%, 62.001038%)" offset="0.519531"/><stop stop-opacity="1" stop-color="rgb(18.937683%, 55.862427%, 61.630249%)" offset="0.523438"/><stop stop-opacity="1" stop-color="rgb(18.714905%, 55.44281%, 61.25946%)" offset="0.527344"/><stop stop-opacity="1" stop-color="rgb(18.492126%, 55.023193%, 60.890198%)" offset="0.53125"/><stop stop-opacity="1" stop-color="rgb(18.269348%, 54.603577%, 60.519409%)" offset="0.535156"/><stop stop-opacity="1" stop-color="rgb(18.048096%, 54.18396%, 60.148621%)" offset="0.539062"/><stop stop-opacity="1" stop-color="rgb(17.825317%, 53.764343%, 59.777832%)" offset="0.542969"/><stop stop-opacity="1" stop-color="rgb(17.604065%, 53.344727%, 59.407043%)" offset="0.546875"/><stop stop-opacity="1" stop-color="rgb(17.381287%, 52.92511%, 59.036255%)" offset="0.550781"/><stop stop-opacity="1" stop-color="rgb(17.158508%, 52.505493%, 58.666992%)" offset="0.554688"/><stop stop-opacity="1" stop-color="rgb(16.93573%, 52.084351%, 58.296204%)" offset="0.558594"/><stop stop-opacity="1" stop-color="rgb(16.714478%, 51.664734%, 57.925415%)" offset="0.5625"/><stop stop-opacity="1" stop-color="rgb(16.491699%, 51.245117%, 57.554626%)" offset="0.566406"/><stop stop-opacity="1" stop-color="rgb(16.268921%, 50.8255%, 57.185364%)" offset="0.570312"/><stop stop-opacity="1" stop-color="rgb(16.046143%, 50.405884%, 56.814575%)" offset="0.574219"/><stop stop-opacity="1" stop-color="rgb(15.82489%, 49.986267%, 56.443787%)" offset="0.578125"/><stop stop-opacity="1" stop-color="rgb(15.602112%, 49.56665%, 56.072998%)" offset="0.582031"/><stop stop-opacity="1" stop-color="rgb(15.380859%, 49.147034%, 55.703735%)" offset="0.585938"/><stop stop-opacity="1" stop-color="rgb(15.158081%, 48.725891%, 55.332947%)" offset="0.589844"/><stop stop-opacity="1" stop-color="rgb(14.935303%, 48.306274%, 54.962158%)" offset="0.59375"/><stop stop-opacity="1" stop-color="rgb(14.712524%, 47.886658%, 54.59137%)" offset="0.597656"/><stop stop-opacity="1" stop-color="rgb(14.491272%, 47.467041%, 54.222107%)" offset="0.601562"/><stop stop-opacity="1" stop-color="rgb(14.268494%, 47.047424%, 53.851318%)" offset="0.605469"/><stop stop-opacity="1" stop-color="rgb(14.047241%, 46.627808%, 53.48053%)" offset="0.609375"/><stop stop-opacity="1" stop-color="rgb(13.824463%, 46.208191%, 53.109741%)" offset="0.613281"/><stop stop-opacity="1" stop-color="rgb(13.601685%, 45.788574%, 52.740479%)" offset="0.617188"/><stop stop-opacity="1" stop-color="rgb(13.378906%, 45.367432%, 52.36969%)" offset="0.621094"/><stop stop-opacity="1" stop-color="rgb(13.157654%, 44.947815%, 51.998901%)" offset="0.625"/><stop stop-opacity="1" stop-color="rgb(12.934875%, 44.528198%, 51.628113%)" offset="0.628906"/><stop stop-opacity="1" stop-color="rgb(12.713623%, 44.108582%, 51.25885%)" offset="0.632813"/><stop stop-opacity="1" stop-color="rgb(12.490845%, 43.688965%, 50.888062%)" offset="0.636719"/><stop stop-opacity="1" stop-color="rgb(12.268066%, 43.269348%, 50.517273%)" offset="0.640625"/><stop stop-opacity="1" stop-color="rgb(12.045288%, 42.849731%, 50.146484%)" offset="0.644531"/><stop stop-opacity="1" stop-color="rgb(11.824036%, 42.430115%, 49.775696%)" offset="0.648438"/><stop stop-opacity="1" stop-color="rgb(11.601257%, 42.008972%, 49.404907%)" offset="0.652344"/><stop stop-opacity="1" stop-color="rgb(11.380005%, 41.589355%, 49.035645%)" offset="0.65625"/><stop stop-opacity="1" stop-color="rgb(11.157227%, 41.169739%, 48.664856%)" offset="0.660156"/><stop stop-opacity="1" stop-color="rgb(10.934448%, 40.750122%, 48.294067%)" offset="0.664062"/><stop stop-opacity="1" stop-color="rgb(10.71167%, 40.330505%, 47.923279%)" offset="0.667969"/><stop stop-opacity="1" stop-color="rgb(10.490417%, 39.910889%, 47.554016%)" offset="0.671875"/><stop stop-opacity="1" stop-color="rgb(10.267639%, 39.491272%, 47.183228%)" offset="0.675781"/><stop stop-opacity="1" stop-color="rgb(10.046387%, 39.071655%, 46.812439%)" offset="0.679688"/><stop stop-opacity="1" stop-color="rgb(9.823608%, 38.650513%, 46.44165%)" offset="0.683594"/><stop stop-opacity="1" stop-color="rgb(9.60083%, 38.230896%, 46.072388%)" offset="0.6875"/><stop stop-opacity="1" stop-color="rgb(9.378052%, 37.811279%, 45.701599%)" offset="0.691406"/><stop stop-opacity="1" stop-color="rgb(9.156799%, 37.391663%, 45.330811%)" offset="0.695313"/><stop stop-opacity="1" stop-color="rgb(8.934021%, 36.972046%, 44.960022%)" offset="0.699219"/><stop stop-opacity="1" stop-color="rgb(8.712769%, 36.552429%, 44.590759%)" offset="0.703125"/><stop stop-opacity="1" stop-color="rgb(8.48999%, 36.132812%, 44.219971%)" offset="0.707031"/><stop stop-opacity="1" stop-color="rgb(8.267212%, 35.713196%, 43.849182%)" offset="0.710938"/><stop stop-opacity="1" stop-color="rgb(8.044434%, 35.292053%, 43.478394%)" offset="0.714844"/><stop stop-opacity="1" stop-color="rgb(7.823181%, 34.872437%, 43.109131%)" offset="0.71875"/><stop stop-opacity="1" stop-color="rgb(7.600403%, 34.45282%, 42.738342%)" offset="0.722656"/><stop stop-opacity="1" stop-color="rgb(7.37915%, 34.033203%, 42.367554%)" offset="0.726562"/><stop stop-opacity="1" stop-color="rgb(7.156372%, 33.613586%, 41.996765%)" offset="0.730469"/><stop stop-opacity="1" stop-color="rgb(6.933594%, 33.19397%, 41.627502%)" offset="0.734375"/><stop stop-opacity="1" stop-color="rgb(6.710815%, 32.774353%, 41.256714%)" offset="0.738281"/><stop stop-opacity="1" stop-color="rgb(6.489563%, 32.354736%, 40.885925%)" offset="0.742188"/><stop stop-opacity="1" stop-color="rgb(6.266785%, 31.933594%, 40.515137%)" offset="0.746094"/><stop stop-opacity="1" stop-color="rgb(6.045532%, 31.513977%, 40.145874%)" offset="0.75"/><stop stop-opacity="1" stop-color="rgb(5.822754%, 31.09436%, 39.775085%)" offset="0.753906"/><stop stop-opacity="1" stop-color="rgb(5.599976%, 30.674744%, 39.404297%)" offset="0.757812"/><stop stop-opacity="1" stop-color="rgb(5.377197%, 30.255127%, 39.033508%)" offset="0.761719"/><stop stop-opacity="1" stop-color="rgb(5.155945%, 29.83551%, 38.66272%)" offset="0.765625"/><stop stop-opacity="1" stop-color="rgb(4.933167%, 29.415894%, 38.291931%)" offset="0.769531"/><stop stop-opacity="1" stop-color="rgb(4.711914%, 28.996277%, 37.922668%)" offset="0.773438"/><stop stop-opacity="1" stop-color="rgb(4.489136%, 28.575134%, 37.55188%)" offset="0.777344"/><stop stop-opacity="1" stop-color="rgb(4.266357%, 28.155518%, 37.181091%)" offset="0.78125"/><stop stop-opacity="1" stop-color="rgb(4.043579%, 27.735901%, 36.810303%)" offset="0.785156"/><stop stop-opacity="1" stop-color="rgb(3.822327%, 27.316284%, 36.44104%)" offset="0.789063"/><stop stop-opacity="1" stop-color="rgb(3.599548%, 26.896667%, 36.070251%)" offset="0.792969"/><stop stop-opacity="1" stop-color="rgb(3.378296%, 26.477051%, 35.699463%)" offset="0.796875"/><stop stop-opacity="1" stop-color="rgb(3.155518%, 26.057434%, 35.328674%)" offset="0.800781"/><stop stop-opacity="1" stop-color="rgb(2.932739%, 25.637817%, 34.959412%)" offset="0.804688"/><stop stop-opacity="1" stop-color="rgb(2.709961%, 25.216675%, 34.588623%)" offset="0.808594"/><stop stop-opacity="1" stop-color="rgb(2.488708%, 24.797058%, 34.217834%)" offset="0.8125"/><stop stop-opacity="1" stop-color="rgb(2.26593%, 24.377441%, 33.847046%)" offset="0.816406"/><stop stop-opacity="1" stop-color="rgb(2.044678%, 23.957825%, 33.477783%)" offset="0.820312"/><stop stop-opacity="1" stop-color="rgb(1.821899%, 23.538208%, 33.106995%)" offset="0.824219"/><stop stop-opacity="1" stop-color="rgb(1.599121%, 23.118591%, 32.736206%)" offset="0.828125"/><stop stop-opacity="1" stop-color="rgb(1.376343%, 22.698975%, 32.365417%)" offset="0.832031"/><stop stop-opacity="1" stop-color="rgb(1.15509%, 22.279358%, 31.996155%)" offset="0.835938"/><stop stop-opacity="1" stop-color="rgb(0.967407%, 21.923828%, 31.681824%)" offset="0.839844"/><stop stop-opacity="1" stop-color="rgb(0.779724%, 21.569824%, 31.369019%)" offset="0.84375"/><stop stop-opacity="1" stop-color="rgb(0.779724%, 21.569824%, 31.369019%)" offset="0.875"/><stop stop-opacity="1" stop-color="rgb(0.779724%, 21.569824%, 31.369019%)" offset="1"/></linearGradient><clipPath id="70a7a33ed6"><rect x="0" width="252" y="0" height="169"/></clipPath><clipPath id="3d7c72270e"><path d="M 0.527344 0.5 L 252 0.5 L 252 168.5 L 0.527344 168.5 Z M 0.527344 0.5 " clip-rule="nonzero"/></clipPath><clipPath id="bf9b604f23"><rect x="0" width="252" y="0" height="169"/></clipPath><clipPath id="acb426ea93"><rect x="0" width="252" y="0" height="169"/></clipPath><mask id="1e497910c6"><g filter="url(#8e1eb89912)"><g transform="matrix(1, 0, 0, 1, 0.000000000000014211, 0)"><g clip-path="url(#acb426ea93)"><g clip-path="url(#3d7c72270e)"><g transform="matrix(1, 0, 0, 1, 0.000000000000014211, 0)"><g clip-path="url(#bf9b604f23)"><g fill="#000000" fill-opacity="1"><g transform="translate(56.777513, 80.749988)"><g><path d="M 3.609375 0 C 3.066406 0 2.601562 -0.191406 2.21875 -0.578125 C 1.84375 -0.972656 1.65625 -1.441406 1.65625 -1.984375 L 1.65625 -17.078125 C 1.65625 -18.015625 1.960938 -18.710938 2.578125 -19.171875 C 3.191406 -19.628906 4.132812 -19.859375 5.40625 -19.859375 L 5.40625 -3.25 L 12.96875 -3.25 C 13.84375 -3.25 14.503906 -2.972656 14.953125 -2.421875 C 15.398438 -1.867188 15.625 -1.0625 15.625 0 Z M 3.609375 0 "/></g></g></g><g fill="#000000" fill-opacity="1"><g transform="translate(73.15538, 80.749988)"><g><path d="M 9.765625 0.25 C 8.203125 0.25 6.789062 -0.0664062 5.53125 -0.703125 C 4.269531 -1.335938 3.285156 -2.210938 2.578125 -3.328125 C 1.867188 -4.453125 1.515625 -5.722656 1.515625 -7.140625 L 1.515625 -17.078125 C 1.515625 -17.972656 1.832031 -18.660156 2.46875 -19.140625 C 3.101562 -19.617188 4.035156 -19.859375 5.265625 -19.859375 L 5.265625 -7.140625 C 5.265625 -5.890625 5.675781 -4.890625 6.5 -4.140625 C 7.320312 -3.398438 8.410156 -3.03125 9.765625 -3.03125 C 11.128906 -3.03125 12.222656 -3.398438 13.046875 -4.140625 C 13.867188 -4.890625 14.28125 -5.890625 14.28125 -7.140625 L 14.28125 -17.078125 C 14.28125 -17.992188 14.597656 -18.6875 15.234375 -19.15625 C 15.867188 -19.625 16.800781 -19.859375 18.03125 -19.859375 L 18.03125 -7.140625 C 18.03125 -5.722656 17.675781 -4.453125 16.96875 -3.328125 C 16.257812 -2.210938 15.273438 -1.335938 14.015625 -0.703125 C 12.753906 -0.0664062 11.335938 0.25 9.765625 0.25 Z M 9.765625 0.25 "/></g></g></g><g fill="#000000" fill-opacity="1"><g transform="translate(93.900725, 80.749988)"><g><path d="M 9.71875 0.25 C 8.050781 0.25 6.566406 -0.0664062 5.265625 -0.703125 C 3.972656 -1.335938 2.960938 -2.222656 2.234375 -3.359375 C 1.503906 -4.492188 1.140625 -5.789062 1.140625 -7.25 L 1.140625 -12.40625 C 1.140625 -13.863281 1.5 -15.15625 2.21875 -16.28125 C 2.9375 -17.40625 3.929688 -18.28125 5.203125 -18.90625 C 6.472656 -19.539062 7.929688 -19.859375 9.578125 -19.859375 C 11.222656 -19.859375 12.679688 -19.609375 13.953125 -19.109375 C 15.234375 -18.617188 16.226562 -17.925781 16.9375 -17.03125 C 17.644531 -16.144531 18 -15.132812 18 -14 C 18 -13.3125 17.769531 -12.765625 17.3125 -12.359375 C 16.851562 -11.960938 16.242188 -11.765625 15.484375 -11.765625 C 15.109375 -11.765625 14.695312 -11.816406 14.25 -11.921875 C 14.289062 -12.367188 14.3125 -12.8125 14.3125 -13.25 C 14.3125 -14.238281 13.867188 -15.039062 12.984375 -15.65625 C 12.109375 -16.269531 10.972656 -16.578125 9.578125 -16.578125 C 8.191406 -16.578125 7.066406 -16.1875 6.203125 -15.40625 C 5.335938 -14.632812 4.90625 -13.632812 4.90625 -12.40625 L 4.90625 -7.25 C 4.90625 -6 5.351562 -4.984375 6.25 -4.203125 C 7.144531 -3.421875 8.300781 -3.03125 9.71875 -3.03125 C 11.113281 -3.03125 12.25 -3.335938 13.125 -3.953125 C 14.007812 -4.566406 14.453125 -5.359375 14.453125 -6.328125 C 14.453125 -6.773438 14.429688 -7.203125 14.390625 -7.609375 C 14.859375 -7.703125 15.25 -7.75 15.5625 -7.75 C 16.351562 -7.75 16.976562 -7.546875 17.4375 -7.140625 C 17.90625 -6.734375 18.140625 -6.171875 18.140625 -5.453125 C 18.140625 -4.359375 17.785156 -3.375 17.078125 -2.5 C 16.367188 -1.632812 15.375 -0.957031 14.09375 -0.46875 C 12.820312 0.0078125 11.363281 0.25 9.71875 0.25 Z M 9.71875 0.25 "/></g></g></g><g fill="#000000" fill-opacity="1"><g transform="translate(114.338108, 80.749988)"><g><path d="M 3.640625 0.25 C 2.835938 0.15625 2.207031 -0.117188 1.75 -0.578125 C 1.289062 -1.046875 1.0625 -1.640625 1.0625 -2.359375 C 1.0625 -2.890625 1.191406 -3.445312 1.453125 -4.03125 L 7.875 -18.625 C 8.226562 -19.445312 8.84375 -19.859375 9.71875 -19.859375 C 10.570312 -19.859375 11.175781 -19.445312 11.53125 -18.625 L 17.953125 -4.03125 C 18.210938 -3.414062 18.34375 -2.859375 18.34375 -2.359375 C 18.34375 -1.640625 18.113281 -1.046875 17.65625 -0.578125 C 17.195312 -0.117188 16.554688 0.15625 15.734375 0.25 L 13.390625 -5.0625 L 6.015625 -5.0625 Z M 12.234375 -8.265625 L 9.15625 -15.9375 L 8.8125 -15.796875 L 9.484375 -14.0625 L 7.140625 -8.265625 Z M 12.234375 -8.265625 "/></g></g></g><g fill="#000000" fill-opacity="1"><g transform="translate(134.271529, 80.749988)"><g><path d="M 9.359375 0.25 C 7.671875 0.25 6.203125 0.046875 4.953125 -0.359375 C 3.703125 -0.773438 2.742188 -1.359375 2.078125 -2.109375 C 1.421875 -2.867188 1.09375 -3.753906 1.09375 -4.765625 C 1.09375 -6.296875 2.128906 -7.0625 4.203125 -7.0625 C 4.273438 -5.632812 4.753906 -4.554688 5.640625 -3.828125 C 6.523438 -3.109375 7.769531 -2.75 9.375 -2.75 C 10.707031 -2.75 11.734375 -2.972656 12.453125 -3.421875 C 13.179688 -3.878906 13.546875 -4.519531 13.546875 -5.34375 C 13.546875 -5.882812 13.40625 -6.328125 13.125 -6.671875 C 12.851562 -7.023438 12.378906 -7.335938 11.703125 -7.609375 C 11.035156 -7.878906 10.054688 -8.148438 8.765625 -8.421875 C 6.929688 -8.859375 5.488281 -9.335938 4.4375 -9.859375 C 3.382812 -10.378906 2.625 -11.007812 2.15625 -11.75 C 1.6875 -12.488281 1.453125 -13.40625 1.453125 -14.5 C 1.453125 -15.5625 1.765625 -16.492188 2.390625 -17.296875 C 3.015625 -18.109375 3.898438 -18.738281 5.046875 -19.1875 C 6.203125 -19.632812 7.523438 -19.859375 9.015625 -19.859375 C 10.453125 -19.859375 11.734375 -19.664062 12.859375 -19.28125 C 13.992188 -18.894531 14.878906 -18.351562 15.515625 -17.65625 C 16.160156 -16.96875 16.484375 -16.175781 16.484375 -15.28125 C 16.484375 -13.90625 15.488281 -13.1875 13.5 -13.125 C 13.382812 -14.414062 12.972656 -15.359375 12.265625 -15.953125 C 11.554688 -16.554688 10.472656 -16.859375 9.015625 -16.859375 C 7.765625 -16.859375 6.800781 -16.648438 6.125 -16.234375 C 5.457031 -15.828125 5.125 -15.25 5.125 -14.5 C 5.125 -13.976562 5.253906 -13.546875 5.515625 -13.203125 C 5.773438 -12.859375 6.210938 -12.554688 6.828125 -12.296875 C 7.441406 -12.046875 8.320312 -11.789062 9.46875 -11.53125 C 11.382812 -11.101562 12.898438 -10.625 14.015625 -10.09375 C 15.140625 -9.5625 15.953125 -8.914062 16.453125 -8.15625 C 16.960938 -7.40625 17.21875 -6.476562 17.21875 -5.375 C 17.21875 -4.238281 16.894531 -3.242188 16.25 -2.390625 C 15.601562 -1.546875 14.6875 -0.894531 13.5 -0.4375 C 12.320312 0.0195312 10.941406 0.25 9.359375 0.25 Z M 9.359375 0.25 "/></g></g></g><g fill="#000000" fill-opacity="1"><g transform="translate(56.777513, 108.499986)"><g><path d="M 9.71875 0.25 C 8.050781 0.25 6.566406 -0.0664062 5.265625 -0.703125 C 3.972656 -1.335938 2.960938 -2.222656 2.234375 -3.359375 C 1.503906 -4.492188 1.140625 -5.789062 1.140625 -7.25 L 1.140625 -12.40625 C 1.140625 -13.863281 1.5 -15.15625 2.21875 -16.28125 C 2.9375 -17.40625 3.929688 -18.28125 5.203125 -18.90625 C 6.472656 -19.539062 7.929688 -19.859375 9.578125 -19.859375 C 11.222656 -19.859375 12.679688 -19.609375 13.953125 -19.109375 C 15.234375 -18.617188 16.226562 -17.925781 16.9375 -17.03125 C 17.644531 -16.144531 18 -15.132812 18 -14 C 18 -13.3125 17.769531 -12.765625 17.3125 -12.359375 C 16.851562 -11.960938 16.242188 -11.765625 15.484375 -11.765625 C 15.109375 -11.765625 14.695312 -11.816406 14.25 -11.921875 C 14.289062 -12.367188 14.3125 -12.8125 14.3125 -13.25 C 14.3125 -14.238281 13.867188 -15.039062 12.984375 -15.65625 C 12.109375 -16.269531 10.972656 -16.578125 9.578125 -16.578125 C 8.191406 -16.578125 7.066406 -16.1875 6.203125 -15.40625 C 5.335938 -14.632812 4.90625 -13.632812 4.90625 -12.40625 L 4.90625 -7.25 C 4.90625 -6 5.351562 -4.984375 6.25 -4.203125 C 7.144531 -3.421875 8.300781 -3.03125 9.71875 -3.03125 C 11.113281 -3.03125 12.25 -3.335938 13.125 -3.953125 C 14.007812 -4.566406 14.453125 -5.359375 14.453125 -6.328125 C 14.453125 -6.773438 14.429688 -7.203125 14.390625 -7.609375 C 14.859375 -7.703125 15.25 -7.75 15.5625 -7.75 C 16.351562 -7.75 16.976562 -7.546875 17.4375 -7.140625 C 17.90625 -6.734375 18.140625 -6.171875 18.140625 -5.453125 C 18.140625 -4.359375 17.785156 -3.375 17.078125 -2.5 C 16.367188 -1.632812 15.375 -0.957031 14.09375 -0.46875 C 12.820312 0.0078125 11.363281 0.25 9.71875 0.25 Z M 9.71875 0.25 "/></g></g></g><g fill="#000000" fill-opacity="1"><g transform="translate(77.214897, 108.499986)"><g><path d="M 3.640625 0.25 C 2.835938 0.15625 2.207031 -0.117188 1.75 -0.578125 C 1.289062 -1.046875 1.0625 -1.640625 1.0625 -2.359375 C 1.0625 -2.890625 1.191406 -3.445312 1.453125 -4.03125 L 7.875 -18.625 C 8.226562 -19.445312 8.84375 -19.859375 9.71875 -19.859375 C 10.570312 -19.859375 11.175781 -19.445312 11.53125 -18.625 L 17.953125 -4.03125 C 18.210938 -3.414062 18.34375 -2.859375 18.34375 -2.359375 C 18.34375 -1.640625 18.113281 -1.046875 17.65625 -0.578125 C 17.195312 -0.117188 16.554688 0.15625 15.734375 0.25 L 13.390625 -5.0625 L 6.015625 -5.0625 Z M 12.234375 -8.265625 L 9.15625 -15.9375 L 8.8125 -15.796875 L 9.484375 -14.0625 L 7.140625 -8.265625 Z M 12.234375 -8.265625 "/></g></g></g><g fill="#000000" fill-opacity="1"><g transform="translate(97.848249, 108.499986)"><g><path d="M 1.65625 -17.890625 C 1.65625 -18.378906 1.832031 -18.785156 2.1875 -19.109375 C 2.539062 -19.429688 2.988281 -19.59375 3.53125 -19.59375 L 11 -19.59375 C 13.019531 -19.59375 14.582031 -19.0625 15.6875 -18 C 16.800781 -16.9375 17.359375 -15.445312 17.359375 -13.53125 C 17.359375 -12.425781 17.132812 -11.492188 16.6875 -10.734375 C 16.238281 -9.984375 15.554688 -9.382812 14.640625 -8.9375 L 14.640625 -8.84375 C 16.285156 -8.113281 17.109375 -6.734375 17.109375 -4.703125 L 17.109375 -2.515625 C 17.109375 -1.617188 16.789062 -0.929688 16.15625 -0.453125 C 15.519531 0.015625 14.585938 0.25 13.359375 0.25 L 13.359375 -4.53125 C 13.359375 -5.519531 13.160156 -6.25 12.765625 -6.71875 C 12.378906 -7.1875 11.78125 -7.421875 10.96875 -7.421875 L 5.34375 -7.421875 L 5.34375 -2.515625 C 5.34375 -1.597656 5.03125 -0.90625 4.40625 -0.4375 C 3.78125 0.0195312 2.863281 0.25 1.65625 0.25 Z M 10.8125 -10.609375 C 11.707031 -10.609375 12.394531 -10.863281 12.875 -11.375 C 13.363281 -11.894531 13.609375 -12.617188 13.609375 -13.546875 C 13.609375 -15.453125 12.675781 -16.40625 10.8125 -16.40625 L 5.34375 -16.40625 L 5.34375 -10.609375 Z M 10.8125 -10.609375 "/></g></g></g><g fill="#000000" fill-opacity="1"><g transform="translate(116.689801, 108.499986)"><g><path d="M 10.03125 0.25 C 9.132812 0.25 8.523438 -0.160156 8.203125 -0.984375 L 1.0625 -19.484375 C 1.25 -19.578125 1.5 -19.660156 1.8125 -19.734375 C 2.132812 -19.816406 2.414062 -19.859375 2.65625 -19.859375 C 4.132812 -19.859375 5.085938 -19.257812 5.515625 -18.0625 L 9.828125 -5.984375 L 9.15625 -4.203125 L 9.46875 -4.09375 L 14.5 -18.0625 C 14.945312 -19.257812 15.898438 -19.859375 17.359375 -19.859375 C 17.597656 -19.859375 17.875 -19.816406 18.1875 -19.734375 C 18.507812 -19.660156 18.773438 -19.578125 18.984375 -19.484375 L 11.84375 -0.984375 C 11.695312 -0.585938 11.46875 -0.28125 11.15625 -0.0625 C 10.851562 0.144531 10.476562 0.25 10.03125 0.25 Z M 10.03125 0.25 "/></g></g></g><g fill="#000000" fill-opacity="1"><g transform="translate(134.439391, 108.499986)"><g><path d="M 3.640625 0.25 C 2.835938 0.15625 2.207031 -0.117188 1.75 -0.578125 C 1.289062 -1.046875 1.0625 -1.640625 1.0625 -2.359375 C 1.0625 -2.890625 1.191406 -3.445312 1.453125 -4.03125 L 7.875 -18.625 C 8.226562 -19.445312 8.84375 -19.859375 9.71875 -19.859375 C 10.570312 -19.859375 11.175781 -19.445312 11.53125 -18.625 L 17.953125 -4.03125 C 18.210938 -3.414062 18.34375 -2.859375 18.34375 -2.359375 C 18.34375 -1.640625 18.113281 -1.046875 17.65625 -0.578125 C 17.195312 -0.117188 16.554688 0.15625 15.734375 0.25 L 13.390625 -5.0625 L 6.015625 -5.0625 Z M 12.234375 -8.265625 L 9.15625 -15.9375 L 8.8125 -15.796875 L 9.484375 -14.0625 L 7.140625 -8.265625 Z M 12.234375 -8.265625 "/></g></g></g><g fill="#000000" fill-opacity="1"><g transform="translate(155.072744, 108.499986)"><g><path d="M 3.609375 0 C 3.066406 0 2.601562 -0.191406 2.21875 -0.578125 C 1.84375 -0.972656 1.65625 -1.441406 1.65625 -1.984375 L 1.65625 -17.078125 C 1.65625 -18.015625 1.960938 -18.710938 2.578125 -19.171875 C 3.191406 -19.628906 4.132812 -19.859375 5.40625 -19.859375 L 5.40625 -3.25 L 12.96875 -3.25 C 13.84375 -3.25 14.503906 -2.972656 14.953125 -2.421875 C 15.398438 -1.867188 15.625 -1.0625 15.625 0 Z M 3.609375 0 "/></g></g></g><g fill="#000000" fill-opacity="1"><g transform="translate(172.710503, 108.499986)"><g><path d="M 1.65625 -17.078125 C 1.65625 -17.972656 1.972656 -18.660156 2.609375 -19.140625 C 3.242188 -19.617188 4.175781 -19.859375 5.40625 -19.859375 L 5.40625 -11.515625 L 13.78125 -11.515625 L 13.78125 -17.078125 C 13.78125 -17.992188 14.097656 -18.6875 14.734375 -19.15625 C 15.378906 -19.625 16.3125 -19.859375 17.53125 -19.859375 L 17.53125 -2.515625 C 17.53125 -1.617188 17.207031 -0.929688 16.5625 -0.453125 C 15.914062 0.015625 14.988281 0.25 13.78125 0.25 L 13.78125 -8.265625 L 5.40625 -8.265625 L 5.40625 -2.515625 C 5.40625 -1.617188 5.082031 -0.929688 4.4375 -0.453125 C 3.789062 0.015625 2.863281 0.25 1.65625 0.25 Z M 1.65625 -17.078125 "/></g></g></g><g fill="#000000" fill-opacity="1"><g transform="translate(193.119884, 108.499986)"><g><path d="M 9.375 0.25 C 7.84375 0.25 6.441406 -0.0507812 5.171875 -0.65625 C 3.910156 -1.257812 2.910156 -2.082031 2.171875 -3.125 C 1.429688 -4.175781 1.0625 -5.316406 1.0625 -6.546875 L 1.0625 -13.078125 C 1.0625 -14.304688 1.429688 -15.4375 2.171875 -16.46875 C 2.910156 -17.507812 3.910156 -18.332031 5.171875 -18.9375 C 6.441406 -19.550781 7.84375 -19.859375 9.375 -19.859375 C 10.90625 -19.859375 12.3125 -19.550781 13.59375 -18.9375 C 14.875 -18.332031 15.878906 -17.507812 16.609375 -16.46875 C 17.347656 -15.4375 17.71875 -14.304688 17.71875 -13.078125 L 17.71875 -6.546875 C 17.71875 -5.316406 17.347656 -4.175781 16.609375 -3.125 C 15.878906 -2.082031 14.875 -1.257812 13.59375 -0.65625 C 12.3125 -0.0507812 10.90625 0.25 9.375 0.25 Z M 9.375 -3.03125 C 10.78125 -3.03125 11.898438 -3.359375 12.734375 -4.015625 C 13.578125 -4.679688 14 -5.546875 14 -6.609375 L 14 -12.984375 C 14 -14.066406 13.578125 -14.941406 12.734375 -15.609375 C 11.898438 -16.273438 10.78125 -16.609375 9.375 -16.609375 C 8 -16.609375 6.890625 -16.273438 6.046875 -15.609375 C 5.203125 -14.941406 4.78125 -14.066406 4.78125 -12.984375 L 4.78125 -6.609375 C 4.78125 -5.546875 5.203125 -4.679688 6.046875 -4.015625 C 6.890625 -3.359375 8 -3.03125 9.375 -3.03125 Z M 9.375 -3.03125 "/></g></g></g></g></g></g></g></g></g></mask><clipPath id="58ffbe6cbb"><path d="M 0.527344 0.5 L 252 0.5 L 252 168.5 L 0.527344 168.5 Z M 0.527344 0.5 " clip-rule="nonzero"/></clipPath><clipPath id="5d262098b5"><rect x="0" width="252" y="0" height="169"/></clipPath><clipPath id="3591e287ae"><rect x="0" width="252" y="0" height="169"/></clipPath></defs><path fill="#023750" d="M 48.433594 218.101562 C 48.433594 223.742188 53.007812 228.316406 58.648438 228.316406 C 60 228.316406 61.289062 228.054688 62.464844 227.578125 C 58.710938 226.070312 56.0625 222.394531 56.0625 218.101562 L 56.0625 213.152344 C 50.359375 211.523438 46.183594 206.273438 46.183594 200.046875 C 46.183594 195.121094 48.800781 190.808594 52.714844 188.417969 C 51.492188 187.691406 50.410156 186.6875 49.566406 185.425781 C 46.589844 180.941406 47.808594 174.898438 52.289062 171.921875 C 53.140625 171.355469 54.042969 170.941406 54.976562 170.671875 C 54.359375 169.117188 54.019531 167.421875 54.019531 165.648438 C 54.019531 159.449219 58.15625 154.222656 63.820312 152.570312 C 62.613281 152.21875 61.335938 152.023438 60.011719 152.023438 C 52.488281 152.023438 46.390625 158.125 46.390625 165.648438 C 46.390625 167.421875 46.730469 169.117188 47.347656 170.671875 C 46.417969 170.941406 45.511719 171.355469 44.660156 171.921875 C 40.179688 174.898438 38.964844 180.941406 41.9375 185.425781 C 42.78125 186.6875 43.863281 187.691406 45.085938 188.417969 C 41.171875 190.808594 38.554688 195.121094 38.554688 200.046875 C 38.554688 206.273438 42.730469 211.523438 48.433594 213.152344 Z M 48.433594 218.101562 " fill-opacity="1" fill-rule="nonzero"/><g clip-path="url(#5ec41253c3)"><path fill="#5ce1e6" d="M 47.417969 218.101562 C 47.417969 224.292969 52.457031 229.335938 58.652344 229.335938 C 60.824219 229.335938 62.855469 228.710938 64.578125 227.640625 C 66.652344 229.589844 69.410156 230.699219 72.273438 230.699219 C 78.46875 230.699219 83.511719 225.65625 83.511719 219.460938 L 83.511719 149.300781 C 83.511719 144.042969 79.234375 139.765625 73.976562 139.765625 C 68.722656 139.765625 64.445312 144.042969 64.445312 149.300781 C 64.445312 150.148438 64.5625 150.988281 64.78125 151.800781 C 63.261719 151.277344 61.660156 151.007812 60.011719 151.007812 C 51.941406 151.007812 45.371094 157.574219 45.371094 165.648438 C 45.371094 167.148438 45.605469 168.632812 46.050781 170.046875 C 45.367188 170.320312 44.714844 170.664062 44.097656 171.074219 C 39.15625 174.355469 37.808594 181.046875 41.089844 185.988281 C 41.710938 186.917969 42.453125 187.726562 43.304688 188.414062 C 39.804688 191.089844 37.539062 195.308594 37.539062 200.046875 C 37.539062 206.453125 41.675781 211.90625 47.414062 213.890625 L 47.414062 218.101562 Z M 39.574219 200.046875 C 39.574219 193.097656 45.230469 187.441406 52.179688 187.441406 C 52.742188 187.441406 53.195312 186.984375 53.195312 186.425781 C 53.195312 185.863281 52.742188 185.40625 52.179688 185.40625 C 49.621094 185.40625 47.214844 186.070312 45.117188 187.226562 C 44.195312 186.597656 43.414062 185.804688 42.785156 184.863281 C 40.125 180.855469 41.21875 175.429688 45.222656 172.769531 C 45.71875 172.4375 46.246094 172.164062 46.792969 171.945312 C 46.960938 172.292969 47.140625 172.636719 47.332031 172.972656 C 47.519531 173.296875 47.863281 173.480469 48.214844 173.480469 C 48.386719 173.480469 48.5625 173.433594 48.722656 173.34375 C 49.210938 173.0625 49.375 172.4375 49.09375 171.953125 C 47.988281 170.046875 47.40625 167.863281 47.40625 165.648438 C 47.40625 158.695312 53.0625 153.042969 60.011719 153.042969 C 62.730469 153.042969 65.316406 153.890625 67.496094 155.5 C 67.949219 155.835938 68.585938 155.738281 68.917969 155.285156 C 69.25 154.835938 69.15625 154.199219 68.703125 153.863281 C 68.308594 153.570312 67.898438 153.304688 67.480469 153.054688 C 67.472656 153.039062 67.46875 153.027344 67.460938 153.011719 C 66.820312 151.886719 66.480469 150.605469 66.480469 149.300781 C 66.480469 145.164062 69.84375 141.800781 73.976562 141.800781 C 78.113281 141.800781 81.476562 145.164062 81.476562 149.300781 L 81.476562 219.460938 C 81.476562 224.535156 77.347656 228.664062 72.273438 228.664062 C 70.042969 228.664062 67.890625 227.84375 66.226562 226.390625 C 68.472656 224.335938 69.886719 221.378906 69.886719 218.101562 C 69.886719 217.539062 69.429688 217.082031 68.867188 217.082031 C 68.308594 217.082031 67.851562 217.539062 67.851562 218.101562 C 67.851562 223.171875 63.722656 227.300781 58.652344 227.300781 C 53.578125 227.300781 49.449219 223.171875 49.449219 218.101562 L 49.449219 214.429688 C 50.335938 214.597656 51.246094 214.691406 52.179688 214.691406 C 52.742188 214.691406 53.195312 214.234375 53.195312 213.671875 C 53.195312 213.109375 52.742188 212.65625 52.179688 212.65625 C 45.226562 212.65625 39.574219 207 39.574219 200.046875 Z M 39.574219 200.046875 " fill-opacity="1" fill-rule="nonzero"/></g><path fill="#5ce1e6" d="M 71.164062 186.941406 C 71.429688 185.816406 71.4375 184.640625 71.175781 183.496094 C 70.917969 182.367188 70.421875 181.339844 69.699219 180.441406 C 69.347656 180.003906 68.710938 179.933594 68.269531 180.285156 C 67.832031 180.636719 67.761719 181.277344 68.113281 181.714844 C 68.640625 182.371094 69.003906 183.125 69.191406 183.949219 C 69.46875 185.152344 69.335938 186.402344 68.824219 187.515625 C 66.867188 188.339844 65.265625 189.964844 64.546875 192.132812 C 64.183594 193.230469 64.074219 194.367188 64.226562 195.507812 C 64.292969 196.019531 64.730469 196.390625 65.234375 196.390625 C 65.277344 196.390625 65.320312 196.386719 65.367188 196.382812 C 65.921875 196.308594 66.316406 195.796875 66.242188 195.242188 C 66.132812 194.410156 66.210938 193.578125 66.480469 192.773438 C 67.441406 189.859375 70.597656 188.269531 73.511719 189.234375 C 74.054688 189.414062 74.5625 189.671875 75.019531 190.003906 C 75.476562 190.332031 76.113281 190.226562 76.441406 189.773438 C 76.769531 189.316406 76.664062 188.679688 76.210938 188.351562 C 75.582031 187.902344 74.890625 187.546875 74.152344 187.304688 C 73.160156 186.976562 72.144531 186.863281 71.164062 186.941406 Z M 71.164062 186.941406 " fill-opacity="1" fill-rule="nonzero"/><path fill="#5ce1e6" d="M 53.90625 181.03125 C 54.171875 181.03125 54.4375 180.925781 54.636719 180.722656 C 55.027344 180.320312 55.019531 179.679688 54.621094 179.285156 C 53.988281 178.667969 53.578125 177.871094 53.4375 177.007812 C 54.375 175.59375 54.726562 173.804688 54.28125 172.074219 C 54.140625 171.53125 53.585938 171.203125 53.042969 171.34375 C 52.5 171.484375 52.171875 172.039062 52.3125 172.582031 C 52.792969 174.464844 51.878906 176.445312 50.136719 177.296875 C 49.628906 177.542969 49.421875 178.152344 49.667969 178.65625 C 49.84375 179.015625 50.203125 179.226562 50.582031 179.226562 C 50.730469 179.226562 50.882812 179.195312 51.027344 179.125 C 51.300781 178.992188 51.5625 178.832031 51.808594 178.664062 C 52.125 179.4375 52.589844 180.144531 53.195312 180.738281 C 53.394531 180.933594 53.652344 181.03125 53.90625 181.03125 Z M 53.90625 181.03125 " fill-opacity="1" fill-rule="nonzero"/><path fill="#5ce1e6" d="M 62.652344 162.25 C 63.25 162.097656 63.867188 162.082031 64.480469 162.203125 C 65.558594 162.421875 66.484375 163.042969 67.089844 163.957031 C 67.699219 164.871094 67.914062 165.96875 67.695312 167.042969 C 67.613281 167.457031 67.46875 167.851562 67.269531 168.214844 C 66.996094 168.707031 67.175781 169.328125 67.667969 169.597656 C 67.824219 169.683594 67.992188 169.726562 68.15625 169.726562 C 68.515625 169.726562 68.863281 169.535156 69.050781 169.199219 C 69.351562 168.652344 69.566406 168.0625 69.691406 167.445312 C 69.835938 166.730469 69.851562 166.007812 69.742188 165.304688 C 69.871094 165.3125 69.996094 165.320312 70.125 165.320312 C 70.832031 165.320312 71.535156 165.199219 72.210938 164.957031 C 73.089844 164.640625 73.867188 164.140625 74.515625 163.476562 C 74.910156 163.074219 74.902344 162.429688 74.5 162.039062 C 74.097656 161.644531 73.453125 161.652344 73.0625 162.054688 C 72.628906 162.496094 72.109375 162.832031 71.519531 163.042969 C 70.695312 163.339844 69.800781 163.367188 68.964844 163.121094 C 68.90625 163.023438 68.847656 162.925781 68.785156 162.832031 C 67.878906 161.464844 66.492188 160.535156 64.882812 160.210938 C 63.964844 160.023438 63.046875 160.046875 62.144531 160.28125 C 61.601562 160.417969 61.273438 160.972656 61.414062 161.515625 C 61.550781 162.0625 62.105469 162.390625 62.652344 162.25 Z M 62.652344 162.25 " fill-opacity="1" fill-rule="nonzero"/><path fill="#5ce1e6" d="M 58.335938 207.960938 C 58.34375 207.992188 58.355469 208.023438 58.363281 208.058594 C 58.765625 209.503906 58.695312 211.074219 58.105469 212.53125 C 57.839844 213.195312 57.472656 213.808594 57.023438 214.351562 C 56.667969 214.785156 56.726562 215.425781 57.160156 215.785156 C 57.351562 215.941406 57.578125 216.015625 57.808594 216.015625 C 58.101562 216.015625 58.390625 215.890625 58.59375 215.648438 C 59.175781 214.941406 59.644531 214.148438 59.992188 213.296875 C 60.492188 212.058594 60.699219 210.761719 60.640625 209.488281 C 61.578125 209.808594 62.5625 209.976562 63.558594 209.976562 C 64.039062 209.976562 64.523438 209.941406 65 209.863281 C 66.355469 209.644531 67.605469 209.136719 68.722656 208.355469 C 69.179688 208.03125 69.292969 207.398438 68.972656 206.9375 C 68.648438 206.476562 68.015625 206.367188 67.554688 206.6875 C 66.691406 207.292969 65.722656 207.683594 64.675781 207.855469 C 63.128906 208.105469 61.546875 207.820312 60.183594 207.0625 C 59.75 205.765625 59.019531 204.554688 58.007812 203.542969 C 57.609375 203.144531 56.964844 203.148438 56.570312 203.542969 C 56.171875 203.941406 56.171875 204.585938 56.570312 204.984375 C 57.417969 205.832031 58.011719 206.859375 58.335938 207.960938 Z M 58.335938 207.960938 " fill-opacity="1" fill-rule="nonzero"/><path fill="#0097b2" d="M 148.578125 182.410156 C 147.347656 183.640625 146.625 185.191406 146.414062 186.800781 L 86.675781 186.800781 C 86.113281 186.800781 85.65625 187.253906 85.65625 187.816406 C 85.65625 188.378906 86.113281 188.832031 86.675781 188.832031 L 146.414062 188.832031 C 146.625 190.441406 147.347656 191.992188 148.578125 193.222656 C 150.070312 194.714844 152.027344 195.460938 153.988281 195.460938 C 155.945312 195.460938 157.902344 194.714844 159.394531 193.222656 C 162.375 190.242188 162.375 185.390625 159.394531 182.410156 C 156.410156 179.429688 151.5625 179.429688 148.578125 182.410156 Z M 157.953125 191.785156 C 155.765625 193.972656 152.207031 193.972656 150.019531 191.785156 C 148.9375 190.707031 148.394531 189.292969 148.378906 187.875 C 148.378906 187.855469 148.386719 187.835938 148.386719 187.816406 C 148.386719 187.796875 148.378906 187.777344 148.378906 187.757812 C 148.394531 186.339844 148.9375 184.925781 150.019531 183.847656 C 151.113281 182.753906 152.550781 182.207031 153.988281 182.207031 C 155.421875 182.207031 156.859375 182.753906 157.953125 183.847656 C 160.144531 186.035156 160.144531 189.597656 157.953125 191.785156 Z M 157.953125 191.785156 " fill-opacity="1" fill-rule="nonzero"/><path fill="#0097b2" d="M 127.378906 160.390625 C 126.148438 161.621094 125.425781 163.171875 125.210938 164.78125 L 111.6875 164.78125 C 107.40625 164.78125 103.917969 168.265625 103.917969 172.550781 C 103.917969 175.710938 101.347656 178.285156 98.183594 178.285156 L 86.675781 178.285156 C 86.113281 178.285156 85.65625 178.742188 85.65625 179.300781 C 85.65625 179.863281 86.113281 180.320312 86.675781 180.320312 L 98.183594 180.320312 C 102.46875 180.320312 105.953125 176.832031 105.953125 172.550781 C 105.953125 169.386719 108.527344 166.8125 111.6875 166.8125 L 125.210938 166.8125 C 125.425781 168.421875 126.148438 169.972656 127.378906 171.203125 C 128.871094 172.695312 130.828125 173.441406 132.785156 173.441406 C 134.742188 173.441406 136.703125 172.695312 138.191406 171.203125 C 141.175781 168.222656 141.175781 163.371094 138.191406 160.390625 C 135.210938 157.410156 130.359375 157.410156 127.378906 160.390625 Z M 136.753906 169.765625 C 134.566406 171.953125 131.007812 171.953125 128.816406 169.765625 C 127.738281 168.6875 127.195312 167.273438 127.179688 165.855469 C 127.179688 165.835938 127.183594 165.816406 127.183594 165.796875 C 127.183594 165.777344 127.179688 165.757812 127.179688 165.738281 C 127.195312 164.320312 127.738281 162.90625 128.816406 161.828125 C 129.910156 160.734375 131.347656 160.1875 132.785156 160.1875 C 134.222656 160.1875 135.660156 160.734375 136.753906 161.828125 C 138.941406 164.015625 138.941406 167.578125 136.753906 169.765625 Z M 136.753906 169.765625 " fill-opacity="1" fill-rule="nonzero"/><path fill="#0097b2" d="M 132.785156 217.476562 C 134.746094 217.476562 136.703125 216.734375 138.191406 215.242188 C 139.636719 213.796875 140.433594 211.878906 140.433594 209.835938 C 140.433594 207.792969 139.636719 205.871094 138.191406 204.429688 C 136.75 202.984375 134.828125 202.1875 132.785156 202.1875 C 130.742188 202.1875 128.824219 202.984375 127.378906 204.429688 C 126.175781 205.628906 125.425781 207.160156 125.207031 208.816406 L 111.6875 208.816406 C 108.527344 208.816406 105.953125 206.246094 105.953125 203.082031 C 105.953125 198.796875 102.46875 195.3125 98.183594 195.3125 L 86.675781 195.3125 C 86.113281 195.3125 85.65625 195.769531 85.65625 196.332031 C 85.65625 196.890625 86.113281 197.347656 86.675781 197.347656 L 98.183594 197.347656 C 101.347656 197.347656 103.917969 199.921875 103.917969 203.082031 C 103.917969 207.367188 107.40625 210.851562 111.6875 210.851562 L 125.207031 210.851562 C 125.425781 212.507812 126.175781 214.039062 127.378906 215.242188 C 128.871094 216.734375 130.828125 217.476562 132.785156 217.476562 Z M 128.816406 205.867188 C 129.878906 204.804688 131.285156 204.222656 132.785156 204.222656 C 134.285156 204.222656 135.695312 204.804688 136.753906 205.867188 C 137.8125 206.925781 138.398438 208.335938 138.398438 209.835938 C 138.398438 211.335938 137.816406 212.742188 136.753906 213.804688 C 134.566406 215.992188 131.003906 215.992188 128.816406 213.804688 C 127.773438 212.761719 127.195312 211.382812 127.175781 209.910156 C 127.179688 209.886719 127.183594 209.859375 127.183594 209.835938 C 127.183594 209.808594 127.179688 209.785156 127.175781 209.757812 C 127.195312 208.289062 127.773438 206.910156 128.816406 205.867188 Z M 128.816406 205.867188 " fill-opacity="1" fill-rule="nonzero"/><g clip-path="url(#ba615450ab)"><path fill="#0097b2" d="M 111.175781 229.363281 C 111.5 230.726562 112.191406 231.976562 113.207031 232.992188 C 114.652344 234.4375 116.574219 235.230469 118.613281 235.230469 C 120.65625 235.230469 122.578125 234.4375 124.023438 232.992188 C 125.464844 231.546875 126.261719 229.628906 126.261719 227.585938 C 126.261719 225.542969 125.464844 223.621094 124.023438 222.175781 C 121.039062 219.195312 116.1875 219.195312 113.207031 222.175781 C 111.824219 223.5625 111.039062 225.382812 110.972656 227.328125 L 108.714844 227.328125 C 105.597656 227.328125 102.777344 225.367188 101.695312 222.441406 L 97.304688 210.585938 C 95.925781 206.867188 92.339844 204.371094 88.375 204.371094 L 86.675781 204.371094 C 86.113281 204.371094 85.65625 204.828125 85.65625 205.386719 C 85.65625 205.949219 86.113281 206.40625 86.675781 206.40625 L 88.375 206.40625 C 91.492188 206.40625 94.3125 208.371094 95.394531 211.292969 L 99.789062 223.148438 C 101.164062 226.867188 104.75 229.363281 108.714844 229.363281 Z M 114.644531 223.617188 C 115.742188 222.519531 117.175781 221.976562 118.613281 221.976562 C 120.050781 221.976562 121.488281 222.523438 122.582031 223.617188 C 123.644531 224.675781 124.226562 226.085938 124.226562 227.585938 C 124.226562 229.082031 123.644531 230.492188 122.582031 231.550781 C 121.523438 232.613281 120.113281 233.195312 118.613281 233.195312 C 117.117188 233.195312 115.707031 232.613281 114.644531 231.550781 C 113.933594 230.839844 113.441406 229.964844 113.191406 229.015625 C 113.351562 228.835938 113.449219 228.605469 113.449219 228.347656 C 113.449219 227.996094 113.273438 227.6875 113.007812 227.507812 C 113.027344 226.035156 113.605469 224.65625 114.644531 223.617188 Z M 114.644531 223.617188 " fill-opacity="1" fill-rule="nonzero"/></g><path fill="#0097b2" d="M 86.675781 171.261719 L 88.375 171.261719 C 92.339844 171.261719 95.925781 168.765625 97.304688 165.046875 L 101.695312 153.1875 C 102.777344 150.265625 105.597656 148.304688 108.714844 148.304688 L 110.976562 148.304688 C 111.039062 150.175781 111.78125 152.027344 113.207031 153.457031 C 114.699219 154.945312 116.65625 155.691406 118.613281 155.691406 C 120.574219 155.691406 122.53125 154.945312 124.023438 153.457031 C 127.003906 150.472656 127.003906 145.621094 124.023438 142.640625 C 121.039062 139.660156 116.1875 139.660156 113.207031 142.640625 C 112.171875 143.675781 111.496094 144.9375 111.179688 146.269531 L 108.714844 146.269531 C 104.75 146.269531 101.164062 148.765625 99.789062 152.484375 L 95.394531 164.339844 C 94.3125 167.261719 91.492188 169.226562 88.375 169.226562 L 86.675781 169.226562 C 86.113281 169.226562 85.65625 169.683594 85.65625 170.242188 C 85.65625 170.804688 86.113281 171.261719 86.675781 171.261719 Z M 114.644531 144.078125 C 115.742188 142.984375 117.175781 142.4375 118.613281 142.4375 C 120.050781 142.4375 121.488281 142.984375 122.582031 144.078125 C 124.769531 146.269531 124.769531 149.828125 122.582031 152.015625 C 120.394531 154.203125 116.835938 154.203125 114.644531 152.015625 C 113.570312 150.941406 113.027344 149.535156 113.007812 148.125 C 113.273438 147.941406 113.449219 147.632812 113.449219 147.285156 C 113.449219 147.027344 113.351562 146.796875 113.195312 146.617188 C 113.4375 145.6875 113.917969 144.808594 114.644531 144.078125 Z M 114.644531 144.078125 " fill-opacity="1" fill-rule="nonzero"/><g clip-path="url(#54a6f33cf1)"><g transform="matrix(1, 0, 0, 1, 123, 103)"><g clip-path="url(#3591e287ae)"><g clip-path="url(#b52294f37d)"><g mask="url(#1e497910c6)"><g transform="matrix(1, 0, 0, 1, 0.000000000000014211, 0)"><g clip-path="url(#5d262098b5)"><g clip-path="url(#58ffbe6cbb)"><path fill="url(#db78c2bd20)" d="M 0.527344 0.5 L 0.527344 168.5 L 252 168.5 L 252 0.5 Z M 0.527344 0.5 " fill-rule="nonzero"/></g></g></g></g></g></g></g></g></svg>